<?xml version="1.0" encoding="iso-8859-1"?>
<!-- Generator: Adobe Illustrator 19.0.0, SVG Export Plug-In . SVG Version: 6.00 Build 0)  -->
<svg version="1.1" id="Layer_1" xmlns="http://www.w3.org/2000/svg" xmlns:xlink="http://www.w3.org/1999/xlink" x="0px" y="0px"
	 viewBox="0 0 960 560" style="enable-background:new 0 0 960 560;" xml:space="preserve">
<polyline id="XMLID_1_" style="fill:none;stroke:#000000;stroke-width:10;stroke-linecap:square;stroke-miterlimit:10;" points="
	-867.085,92.562 -697.379,262.268 -782.232,347.121 "/>
<line id="XMLID_3_" style="fill:none;stroke:#000000;stroke-width:10;stroke-linecap:square;stroke-miterlimit:10;" x1="-782.232" y1="347.121" x2="-867.085" y2="262.268"/>
<line id="XMLID_4_" style="fill:none;stroke:#000000;stroke-width:10;stroke-linecap:square;stroke-miterlimit:10;" x1="-867.085" y1="262.268" x2="-782.232" y2="177.415"/>
<line id="XMLID_5_" style="fill:none;stroke:#000000;stroke-width:10;stroke-miterlimit:10;" x1="-782.232" y1="347.121" x2="-697.379" y2="431.973"/>
<g id="XMLID_6_">
	<path id="XMLID_75_" d="M-702.401,430.741l5.309-25.218l4.69,25.34c0.512,2.768-1.316,5.427-4.084,5.939
		c-2.768,0.512-5.427-1.316-5.939-4.084C-702.549,432.052-702.53,431.367-702.401,430.741z"/>
</g>
<line id="XMLID_9_" style="fill:none;stroke:#000000;stroke-width:10;stroke-miterlimit:10;" x1="-785.768" y1="173.879" x2="-870.621" y2="89.027"/>
<g id="XMLID_8_">
	<path id="XMLID_77_" d="M-865.429,90.561l-5.309,25.218l-4.69-25.34c-0.512-2.768,1.316-5.427,4.084-5.939
		c2.768-0.512,5.427,1.316,5.939,4.084C-865.282,89.25-865.301,89.935-865.429,90.561z"/>
</g>
<line id="XMLID_2_" style="fill:none;stroke:#000000;stroke-width:5;stroke-linecap:square;stroke-miterlimit:10;" x1="-782.5" y1="185" x2="-782.5" y2="341"/>
<polyline id="XMLID_84_" style="fill:none;stroke:#000000;stroke-width:10;stroke-linecap:square;stroke-miterlimit:10;" points="
	-655.085,93.562 -485.379,263.268 -570.232,348.121 "/>
<line id="XMLID_83_" style="fill:none;stroke:#000000;stroke-width:10;stroke-linecap:square;stroke-miterlimit:10;" x1="-570.232" y1="348.121" x2="-655.085" y2="263.268"/>
<line id="XMLID_82_" style="fill:none;stroke:#000000;stroke-width:10;stroke-linecap:square;stroke-miterlimit:10;" x1="-655.085" y1="263.268" x2="-570.232" y2="178.415"/>
<line id="XMLID_81_" style="fill:none;stroke:#000000;stroke-width:10;stroke-miterlimit:10;" x1="-570.232" y1="348.121" x2="-485.379" y2="432.973"/>
<g id="XMLID_78_">
	<path id="XMLID_115_" d="M-490.401,431.741l5.309-25.218l4.69,25.34c0.512,2.768-1.316,5.427-4.084,5.939
		c-2.768,0.512-5.427-1.316-5.939-4.084C-490.549,433.052-490.53,432.367-490.401,431.741z"/>
</g>
<line id="XMLID_69_" style="fill:none;stroke:#000000;stroke-width:10;stroke-miterlimit:10;" x1="-573.768" y1="174.879" x2="-658.621" y2="90.027"/>
<g id="XMLID_49_">
	<path id="XMLID_117_" d="M-653.429,91.561l-5.309,25.218l-4.69-25.34c-0.512-2.768,1.316-5.427,4.084-5.939
		c2.768-0.512,5.427,1.316,5.939,4.084C-653.282,90.25-653.301,90.935-653.429,91.561z"/>
</g>
<line id="XMLID_48_" style="fill:none;stroke:#000000;stroke-width:5;stroke-linecap:square;stroke-miterlimit:10;" x1="-577.5" y1="186" x2="-577.5" y2="271"/>
<line id="XMLID_50_" style="fill:none;stroke:#000000;stroke-width:5;stroke-linecap:square;stroke-miterlimit:10;" x1="-561.5" y1="255" x2="-561.5" y2="340"/>
<polyline id="XMLID_34_" style="fill:none;stroke:#000000;stroke-width:10;stroke-linecap:square;stroke-miterlimit:10;" points="
	283.915,99.562 453.621,269.268 368.768,354.121 "/>
<line id="XMLID_33_" style="fill:none;stroke:#000000;stroke-width:10;stroke-linecap:square;stroke-miterlimit:10;" x1="195.768" y1="354.121" x2="110.915" y2="269.268"/>
<line id="XMLID_32_" style="fill:none;stroke:#000000;stroke-width:10;stroke-linecap:square;stroke-miterlimit:10;" x1="110.915" y1="269.268" x2="195.768" y2="184.415"/>
<line id="XMLID_31_" style="fill:none;stroke:#000000;stroke-width:10;stroke-miterlimit:10;" x1="195.768" y1="354.121" x2="280.621" y2="438.973"/>
<g id="XMLID_30_">
	<path id="XMLID_184_" d="M275.599,437.741l5.309-25.218l4.69,25.34c0.512,2.768-1.316,5.427-4.084,5.939
		c-2.768,0.512-5.427-1.316-5.939-4.084C275.451,439.052,275.47,438.367,275.599,437.741z"/>
</g>
<line id="XMLID_29_" style="fill:none;stroke:#000000;stroke-width:10;stroke-miterlimit:10;" x1="365.232" y1="180.879" x2="280.379" y2="96.027"/>
<g id="XMLID_28_">
	<path id="XMLID_186_" d="M285.571,97.561l-5.309,25.218l-4.69-25.34c-0.512-2.768,1.316-5.427,4.084-5.939
		c2.768-0.512,5.427,1.316,5.939,4.084C285.718,96.25,285.699,96.935,285.571,97.561z"/>
</g>
<line id="XMLID_27_" style="fill:none;stroke:#000000;stroke-width:5;stroke-linecap:square;stroke-miterlimit:10;" x1="196" y1="184.5" x2="371" y2="184.5"/>
<line id="XMLID_35_" style="fill:none;stroke:#000000;stroke-width:5;stroke-linecap:square;stroke-miterlimit:10;" x1="369" y1="354.5" x2="196" y2="354.5"/>
<ellipse id="XMLID_36_" style="stroke:#000000;stroke-width:5;stroke-linecap:square;stroke-miterlimit:10;" cx="753.667" cy="268" rx="19" ry="78.333"/>
<circle id="XMLID_37_" style="fill:#FFFFFF;stroke:#000000;stroke-width:2;stroke-linecap:square;stroke-miterlimit:10;" cx="314.667" cy="204.333" r="20"/>
<g id="XMLID_38_">
	<path id="XMLID_188_" d="M281,193c0,0,0.53,0.609,1.386,1.752c0.431,0.571,0.958,1.276,1.518,2.104
		c0.593,0.828,1.218,1.781,1.891,2.847c2.753,4.266,6.075,10.359,9.061,17.672c2.997,7.313,5.626,15.844,7.404,24.984
		c0.896,4.57,1.591,9.293,2.032,14.092c0.449,4.799,0.707,9.674,0.706,14.549c0.017,4.875-0.227,9.75-0.664,14.549
		c-0.426,4.799-1.134,9.521-2.014,14.092c-1.765,9.141-4.394,17.672-7.4,24.984c-2.993,7.313-6.331,13.406-9.098,17.672
		c-0.678,1.066-1.305,2.019-1.901,2.847c-0.564,0.828-1.093,1.533-1.527,2.104C281.534,348.391,281,349,281,349
		s-0.534-0.609-1.395-1.752c-0.434-0.571-0.963-1.276-1.527-2.104c-0.597-0.828-1.223-1.781-1.901-2.847
		c-2.766-4.266-6.104-10.359-9.098-17.672c-3.005-7.313-5.635-15.844-7.4-24.984c-0.88-4.57-1.588-9.293-2.014-14.092
		c-0.437-4.799-0.681-9.674-0.664-14.549c-0.001-4.875,0.256-9.75,0.706-14.549c0.441-4.799,1.136-9.521,2.032-14.092
		c1.778-9.141,4.407-17.672,7.404-24.984c2.986-7.313,6.307-13.406,9.061-17.672c0.673-1.066,1.298-2.019,1.891-2.847
		c0.561-0.828,1.088-1.533,1.518-2.104C280.47,193.609,281,193,281,193z"/>
</g>
<polyline id="XMLID_62_" style="fill:none;stroke:#000000;stroke-width:10;stroke-linecap:square;stroke-miterlimit:10;" points="
	753.915,98.562 923.621,268.268 838.768,353.121 "/>
<line id="XMLID_61_" style="fill:none;stroke:#000000;stroke-width:10;stroke-linecap:square;stroke-miterlimit:10;" x1="665.768" y1="353.121" x2="580.915" y2="268.268"/>
<line id="XMLID_60_" style="fill:none;stroke:#000000;stroke-width:10;stroke-linecap:square;stroke-miterlimit:10;" x1="580.915" y1="268.268" x2="665.768" y2="183.415"/>
<line id="XMLID_59_" style="fill:none;stroke:#000000;stroke-width:10;stroke-miterlimit:10;" x1="665.768" y1="353.121" x2="750.621" y2="437.973"/>
<g id="XMLID_56_">
	<path id="XMLID_169_" d="M745.599,436.741l5.309-25.218l4.69,25.34c0.512,2.768-1.316,5.427-4.084,5.939
		c-2.768,0.512-5.427-1.316-5.939-4.084C745.451,438.052,745.47,437.367,745.599,436.741z"/>
</g>
<line id="XMLID_55_" style="fill:none;stroke:#000000;stroke-width:10;stroke-miterlimit:10;" x1="835.232" y1="179.879" x2="750.379" y2="95.027"/>
<g id="XMLID_52_">
	<path id="XMLID_171_" d="M755.571,96.561l-5.309,25.218l-4.69-25.34c-0.512-2.768,1.316-5.427,4.084-5.939
		c2.768-0.512,5.427,1.316,5.939,4.084C755.718,95.25,755.699,95.935,755.571,96.561z"/>
</g>
<line id="XMLID_51_" style="fill:none;stroke:#000000;stroke-width:5;stroke-linecap:square;stroke-miterlimit:10;" x1="666" y1="183.5" x2="841" y2="183.5"/>
<line id="XMLID_40_" style="fill:none;stroke:#000000;stroke-width:5;stroke-linecap:square;stroke-miterlimit:10;" x1="839" y1="353.5" x2="666" y2="353.5"/>
<circle id="XMLID_39_" style="fill:#FFFFFF;stroke:#000000;stroke-width:2;stroke-linecap:square;stroke-miterlimit:10;" cx="784.667" cy="203.333" r="20"/>
<line id="XMLID_47_" style="fill:none;stroke:#000000;stroke-width:4;stroke-linecap:square;stroke-linejoin:round;stroke-miterlimit:10;" x1="-576.292" y1="269.792" x2="-562.042" y2="255.542"/>
</svg>
